<?xml version="1.0" encoding="UTF-8"?>
<svg id="Layer_1" xmlns="http://www.w3.org/2000/svg" version="1.1" viewBox="0 0 24.31 25.3">
  <path fill="white" d="M9.14.18c-.55,0-.99.46-.98,1.01v1c0,.57-.43,1-1,1h-2.5C2.18,3.19.15,5.22.15,7.69v1h.2c.43,1.83,1.93,3.25,3.83,3.46-.02.18-.03.36-.03.54v11.5c0,.55.45,1,1,1s1-.45,1-1v-4.83c0-2.09,1.53-3.95,3.61-4.15,2.39-.23,4.39,1.64,4.39,3.98v5c0,.55.45,1,1,1s1-.45,1-1v-7c0-.55.45-1,1-1s1,.45,1,1v7c0,.55.45,1,1,1s1-.45,1-1v-10.09c2.28-.42,4-2.23,4-4.41v-4.77c0-.64-.77-.96-1.22-.51l-1.36,1.36c-.72-.36-1.53-.58-2.42-.58s-1.7.22-2.42.58l-1.36-1.36c-.45-.45-1.22-.13-1.22.51v3.68c-1.06-.87-2.46-1.41-4-1.41-2.33,0-4.35,1.22-5.34,3h-.16c-1.39,0-2.5-1.11-2.5-2.5s1.11-2.5,2.5-2.5h2.5c1.64,0,3-1.36,3-3v-1c0-.55-.43-1.01-.99-1.01,0,0-.02,0-.03,0ZM17.15,8.19c.55,0,1,.45,1,1s-.45,1-1,1-1-.45-1-1,.45-1,1-1ZM21.15,8.19c.55,0,1,.45,1,1s-.45,1-1,1-1-.45-1-1,.45-1,1-1ZM10.15,17.19c-.07,0-.14,0-.2,0-1.01.1-1.8,1.05-1.8,2.16v4.83c0,.55.45,1,1,1s1-.45,1-1v-7Z"/>
</svg>